<svg id="图层_1" data-name="图层 1" xmlns="http://www.w3.org/2000/svg" xmlns:xlink="http://www.w3.org/1999/xlink" viewBox="0 0 3889.38 2159.56"><defs><style>.cls-1,.cls-4{fill:none;}.cls-1{clip-rule:evenodd;}.cls-2{clip-path:url(#clip-path);}.cls-3{fill:url(#未命名的渐变);}.cls-4{stroke:#fff;stroke-miterlimit:22.93;stroke-width:5.67px;}</style><clipPath id="clip-path" transform="translate(2.47 25.95)"><path class="cls-1" d="M2877.85,1985.4V1735.88q0-23.22-8.61-33.72t-28.85-10.49q-24,0-38.21,14.24-15,15-15,41.21V1985.4H2651.57V1735.88q0-23.22-8.62-33.72t-28.85-10.49q-24,0-38.22,14.24-15,15-15,41.21V1985.4H2425.27V1592h131.88v45.7q40.47-57.71,110.15-57.7,36.7,0,63.32,15.74t40.09,45.71q24-31.47,53.57-46.46t67.06-15q60,0,91,36t31.1,104.9V1985.4ZM2215.9,1548.55V1450.4H2353v98.15Zm.74,436.85V1592h135.63V1985.4ZM2008,1783.84q0-51-15.74-73.43t-48.7-22.48q-66.69,0-66.69,100.4,0,99.66,65.94,99.66,33,0,49.45-24.73,15.73-22.47,15.74-68.19Zm3.74,201.56v-44.21q-41.21,56.2-114.64,56.2-74.92,0-116.14-53.2t-41.21-149.86q0-67.44,20.23-115.77t57.32-73.43q37.1-25.11,87.3-25.11,65.93,0,103.4,46.46V1450.4h135.62v535Zm-546.56-30L1304.1,1592H1451l74.92,219.54L1594.83,1592H1735.7L1578.35,1986.9q-22.49,56.2-42.34,86.92t-44.58,43.83q-24.73,13.13-65.94,13.12a294.16,294.16,0,0,1-89.17-14.24l20.23-98.16q30,6,45,6,21,0,34.47-10.87t21-34.09Zm-304.53,30-98.91-179.83-45,41.21V1985.4H884.17v-535H1016.8v261.5L1140.43,1592h152.11l-138.62,132.62,149.86,260.76ZM182.79,1780.85c-59.67-66-101.14-134.63-132.47-213.43C19.1,1488-2.47,1385.12,4,1280.55c5.2-100.61,29.3-186.1,76.27-282.74,30.45-62.65,84.93-134.8,143-188.29,37.54-38.73,80.11-64.35,121.66-90.81C418,672.15,509.68,655,544.62,648.36,647.81,406.54,800.79,230.62,988.36,122.15,1186.11,7.79,1418.47-25.95,1663.12,34c289.54,70.9,459.4,260.68,525.8,350.35,93.38-31.69,296.14-81.63,520.52-18.34,162.26,45.76,276.25,124.33,360.6,228.31C3141.16,682,3189.61,786.2,3227.6,903.21c94.89-9.75,280.37-10.49,423,102.45,102.73,81.32,184.35,189.15,217.12,327.88,11.84,44,16.94,90.62,16.26,137.64-.57,38.74-4.88,77.79-14.35,115.89-9.82,39.53-22.6,78.39-42.42,117.26-11.86,21.8-22.86,42.25-35.46,60.78-43.93,64.62-93.22,110-142.07,143.79-54.07,37.38-108.91,60.17-163.5,76.47-23.17,6.92-43.67,10.37-69.07,14.28-32,4.92-64.33,5.92-105,4.46-12.93-.47-28.27-2.77-43-4-22.72-3.28-41.85-6.37-58.14-11a189.63,189.63,0,0,1-48.1-21.21,170.37,170.37,0,0,1-33.7-26.39c-35.47-36.21-60.18-82.55-57.69-150.91,2.42-66.39,18.11-118.14,54.32-155.11s86.54-55.45,151-55.45q95.91,0,149.12,54.7,49.42,50.83,52.93,139.19c.8,21-.21,38.39-2.34,59-27,10.64-54.51,17.86-93.22,22.44a387.47,387.47,0,0,1-57.59,2.8c18.29-20.82,22.71-61.2,22.71-73.06,0-44.94-12.61-72.11-33.55-86.11-10.48-7-22.35-11.75-37.18-11.75a65.37,65.37,0,0,0-29.34,7c-15.31,7.55-26.12,19.85-34.26,42-5.1,13.92-7.88,32.58-7,52.1,2.36,51.45,24.39,86.48,67.12,90.39,49.47,4.53,93.14,4.53,142.61-5.1,103.34-20.11,181.5-68.34,242.83-142.22,22.85-27.52,42.29-55.92,57.67-88.86a407.73,407.73,0,0,0,21.76-55c24.78-78.36,26.46-171.45,1.11-247.1-30.77-102.47-87.51-167.24-173-229.28-148.77-117.78-371.8-66.86-372.45-66.72l-61.59,13.56-17.58-60.81c-36-124.31-80.88-232.68-150.09-318C2898.27,596.37,2806,533.32,2673,495.83c-259.39-73.16-480.75,31.16-481.39,31.46l-56,26.1-30.89-53.28c-.42-.73-145.7-255-473.35-335.22-209.71-51.37-407.85-23-575.51,73.93C886,337.09,745.79,506.08,654.55,734.53l-13.2,33c-109,15.2-238.11,50.74-343.77,148.18-21.44,19.77-38.83,41.74-55.36,64.29-22.76,31-42.68,63.71-58.1,97.92-11.93,26.47-41.35,95.61-48.38,149.59-9.36,71.77-9.29,100-4.66,138,3.11,25.51,7.43,60,16,93.15a593.69,593.69,0,0,0,40.37,108.09c15.25,31,35,60.54,49.06,81.1,20.69,30.34,47,56.21,70.74,80.34,2.41,2.61,33.18,31.18,70.17,56.24,24.06,16.3,51.54,31.08,55.33,33.13,24.56,13.27,45.24,24.71,75.56,35,35.3,12,130.2,38.39,158,17.43,11.2-8.43,18.37-20.24,18.83-37.21.31-11.6-5.15-26-14.89-34s-23.53-13.77-43.51-17.26l-71.19-13.49q-91.41-17.24-133-56.2t-41.58-107.15q0-80.93,55.82-124.39t159.23-43.45q100.39,0,158.1,42t65.94,121.39L680.79,1614.5q-7.5-33.72-27.35-48.71t-58.07-15q-34.47,0-53.2,11.61t-18.73,34.1q0,18.73,14.23,30t45.71,17.24L656.06,1658c59.45,11.49,85.18,29,113.81,57.81,14.41,14.49,27.83,37.63,35.13,57.51a165.29,165.29,0,0,1,9.46,40.64c2,21.12.86,43.12-5.08,64.08-7.58,26.68-20.39,51-39.19,70.84-47.69,50.43-111.89,58.84-179.27,51.08-66.2-7.62-114.2-23.74-174.92-50.84-66.56-29.7-122.55-64.67-176.86-112.85C220,1819.22,200.43,1800,182.79,1780.85Z"/></clipPath><linearGradient id="未命名的渐变" x1="7.05" y1="988.49" x2="3878.96" y2="1168.17" gradientUnits="userSpaceOnUse"><stop offset="0" stop-color="#fb5162"/><stop offset="0.16" stop-color="#f932f9"/><stop offset="0.34" stop-color="#505cf9"/><stop offset="0.55" stop-color="#13f4f4"/><stop offset="0.72" stop-color="#2dfb1f"/><stop offset="0.86" stop-color="#fbfb17"/><stop offset="1" stop-color="#f6390a"/></linearGradient></defs><g class="cls-2"><rect class="cls-3" width="3887.17" height="2156.72"/></g><path class="cls-4" d="M2877.85,1985.4V1735.88q0-23.22-8.61-33.72t-28.85-10.49q-24,0-38.21,14.24-15,15-15,41.21V1985.4H2651.57V1735.88q0-23.22-8.62-33.72t-28.85-10.49q-24,0-38.22,14.24-15,15-15,41.21V1985.4H2425.27V1592h131.88v45.7q40.47-57.71,110.15-57.7,36.7,0,63.32,15.74t40.09,45.71q24-31.47,53.57-46.46t67.06-15q60,0,91,36t31.1,104.9V1985.4ZM2215.9,1548.55V1450.4H2353v98.15Zm.74,436.85V1592h135.63V1985.4ZM2008,1783.84q0-51-15.74-73.43t-48.7-22.48q-66.69,0-66.69,100.4,0,99.66,65.94,99.66,33,0,49.45-24.73,15.73-22.47,15.74-68.19Zm3.74,201.56v-44.21q-41.21,56.2-114.64,56.2-74.92,0-116.14-53.2t-41.21-149.86q0-67.44,20.23-115.77t57.32-73.43q37.1-25.11,87.3-25.11,65.93,0,103.4,46.46V1450.4h135.62v535Zm-546.56-30L1304.1,1592H1451l74.92,219.54L1594.83,1592H1735.7L1578.35,1986.9q-22.49,56.2-42.34,86.92t-44.58,43.83q-24.73,13.13-65.94,13.12a294.16,294.16,0,0,1-89.17-14.24l20.23-98.16q30,6,45,6,21,0,34.47-10.87t21-34.09Zm-304.53,30-98.91-179.83-45,41.21V1985.4H884.17v-535H1016.8v261.5L1140.43,1592h152.11l-138.62,132.62,149.86,260.76ZM182.79,1780.85c-59.67-66-101.14-134.63-132.47-213.43C19.1,1488-2.47,1385.12,4,1280.55c5.2-100.61,29.3-186.1,76.27-282.74,30.45-62.65,84.93-134.8,143-188.29,37.54-38.73,80.11-64.35,121.66-90.81C418,672.15,509.68,655,544.62,648.36,647.81,406.54,800.79,230.62,988.36,122.15,1186.11,7.79,1418.47-25.95,1663.12,34c289.54,70.9,459.4,260.68,525.8,350.35,93.38-31.69,296.14-81.63,520.52-18.34,162.26,45.76,276.25,124.33,360.6,228.31C3141.16,682,3189.61,786.2,3227.6,903.21c94.89-9.75,280.37-10.49,423,102.45,102.73,81.32,184.35,189.15,217.12,327.88,11.84,44,16.94,90.62,16.26,137.64-.57,38.74-4.88,77.79-14.35,115.89-9.82,39.53-22.6,78.39-42.42,117.26-11.86,21.8-22.86,42.25-35.46,60.78-43.93,64.62-93.22,110-142.07,143.79-54.07,37.38-108.91,60.17-163.5,76.47-23.17,6.92-43.67,10.37-69.07,14.28-32,4.92-64.33,5.92-105,4.46-12.93-.47-28.27-2.77-43-4-22.72-3.28-41.85-6.37-58.14-11a189.63,189.63,0,0,1-48.1-21.21,170.37,170.37,0,0,1-33.7-26.39c-35.47-36.21-60.18-82.55-57.69-150.91,2.42-66.39,18.11-118.14,54.32-155.11s86.54-55.45,151-55.45q95.91,0,149.12,54.7,49.42,50.83,52.93,139.19c.8,21-.21,38.39-2.34,59-27,10.64-54.51,17.86-93.22,22.44a387.47,387.47,0,0,1-57.59,2.8c18.29-20.82,22.71-61.2,22.71-73.06,0-44.94-12.61-72.11-33.55-86.11-10.48-7-22.35-11.75-37.18-11.75a65.37,65.37,0,0,0-29.34,7c-15.31,7.55-26.12,19.85-34.26,42-5.1,13.92-7.88,32.58-7,52.1,2.36,51.45,24.39,86.48,67.12,90.39,49.47,4.53,93.14,4.53,142.61-5.1,103.34-20.11,181.5-68.34,242.83-142.22,22.85-27.52,42.29-55.92,57.67-88.86a407.73,407.73,0,0,0,21.76-55c24.78-78.36,26.46-171.45,1.11-247.1-30.77-102.47-87.51-167.24-173-229.28-148.77-117.78-371.8-66.86-372.45-66.72l-61.59,13.56-17.58-60.81c-36-124.31-80.88-232.68-150.09-318C2898.27,596.37,2806,533.32,2673,495.83c-259.39-73.16-480.75,31.16-481.39,31.46l-56,26.1-30.89-53.28c-.42-.73-145.7-255-473.35-335.22-209.71-51.37-407.85-23-575.51,73.93C886,337.09,745.79,506.08,654.55,734.53l-13.2,33c-109,15.2-238.11,50.74-343.77,148.18-21.44,19.77-38.83,41.74-55.36,64.29-22.76,31-42.68,63.71-58.1,97.92-11.93,26.47-41.35,95.61-48.38,149.59-9.36,71.77-9.29,100-4.66,138,3.11,25.51,7.43,60,16,93.15a593.69,593.69,0,0,0,40.37,108.09c15.25,31,35,60.54,49.06,81.1,20.69,30.34,47,56.21,70.74,80.34,2.41,2.61,33.18,31.18,70.17,56.24,24.06,16.3,51.54,31.08,55.33,33.13,24.56,13.27,45.24,24.71,75.56,35,35.3,12,130.2,38.39,158,17.43,11.2-8.43,18.37-20.24,18.83-37.21.31-11.6-5.15-26-14.89-34s-23.53-13.77-43.51-17.26l-71.19-13.49q-91.41-17.24-133-56.2t-41.58-107.15q0-80.93,55.82-124.39t159.23-43.45q100.39,0,158.1,42t65.94,121.39L680.79,1614.5q-7.5-33.72-27.35-48.71t-58.07-15q-34.47,0-53.2,11.61t-18.73,34.1q0,18.73,14.23,30t45.71,17.24L656.06,1658c59.45,11.49,85.18,29,113.81,57.81,14.41,14.49,27.83,37.63,35.13,57.51a165.29,165.29,0,0,1,9.46,40.64c2,21.12.86,43.12-5.08,64.08-7.58,26.68-20.39,51-39.19,70.84-47.69,50.43-111.89,58.84-179.27,51.08-66.2-7.62-114.2-23.74-174.92-50.84-66.56-29.7-122.55-64.67-176.86-112.85C220,1819.22,200.43,1800,182.79,1780.85Z" transform="translate(2.47 25.95)"/></svg>